<svg version="1.1" xmlns="http://www.w3.org/2000/svg" xmlns:xlink="http://www.w3.org/1999/xlink" x="0px" y="0px" viewBox="227.9 273.4 128.7 155.1" enable-background="new 227.9 273.4 128.7 155.1" xml:space="preserve">
<path fill="#6aacda" d="M351,427c0,0-15.3-20.7-22.9-30.9c-5.1-6.7-15.8-21.4-22-29.8c-5.7-7.6-11.8-12.8-21.9-13
    c-25.1-0.1-56.3-0.1-56.3-0.1s2.2,7.4,7,11.1c6.1,4.8,11.8,5.1,15.8,5.1c5.5,0,14.7-0.1,23.6,0.1c3.5,0.1,9.9,0.3,12.8,1.9
    c5.4,2.9,7.9,7.3,11.4,12.1c4.5,6,11.2,15.6,15.6,21.2c4.4,5.7,8.6,12.1,12.1,16c1.6,1.8,4.5,3.9,5.8,4.8c3.2,2,6.6,2.5,7.4,2.6
    C345.5,429,351,427,351,427z"></path>
<path fill="#00519e" d="M318.6,344c17.7-3.6,28.4-18.5,28.4-34c0-16.5-8.5-36.6-42-36.6H259v73.7c11.4,0,17.1,0,21.4,0
    c2.9,0,5.3,0.1,8.3,0.3c5.4,0.1,10.2,2.5,13.4,4.7c2.5,1.8,6.1,5.8,10.1,10.8c3.9,5.3,9.9,13.4,14.2,19.1c2.3,3.1,3.9,5.5,4.7,6.3
    c2.5,2.9,5.4,5.5,9.8,7.3c8.2,3.1,15.8-0.1,15.8-0.1S321,347.1,318.6,344z M276.7,288.8h23.3c14.2,0,28.2,3.4,28.2,21.2
    c0,17.8-14.2,21.2-28.2,21.2l-23.3-0.1V288.8z"></path>
<path fill="#6aacda" d="M322.3,427c0,0-15.5-20.9-22.9-30.9c-2.9-3.9-5.3-7.3-7.6-10.2c-2.6-3.5-5-6.7-8.3-8.3
    c-2.8-1.3-7.3-1.6-11.5-1.6c-7.9,0-44.1,0-44.1,0s1.8,6.7,6.6,10.6c2.5,2,4.2,3.2,6.3,3.9c2,0.7,4.7,1.2,6.7,1.5
    c1.6,0.3,4.7,0.3,5.7,0.3c0.7,0,9.3,0,13,0c5,0,7.3,0,9.5,1.2c2.5,1.3,4.5,4.1,5.8,5.8c3.6,5.1,11.1,15.2,15.6,21.2
    c1,1.3,2.6,2.6,4.1,3.8c2.2,1.5,3.9,2.6,6.4,3.4C315.3,429.9,322.3,427,322.3,427z"></path>
</svg>